HIERARCHY
ROOT Hips
{
	OFFSET	0.000000	0.000000	0.000000
	CHANNELS 6 Xposition Yposition Zposition Zrotation Xrotation Yrotation
	JOINT LeftHip
	{
		OFFSET	4.740440	-3.195970	-0.322709
		CHANNELS 3 Zrotation Xrotation Yrotation
		JOINT LeftKnee
		{
			OFFSET	-1.605680	-15.592300	1.005510
			CHANNELS 3 Zrotation Xrotation Yrotation
			JOINT LeftAnkle
			{
				OFFSET	-0.632401	-16.421000	-1.413730
				CHANNELS 3 Zrotation Xrotation Yrotation
				End Site
				{
					OFFSET	0.008423	-2.933000	-1.684880
				}
			}
		}
	}
	JOINT RightHip
	{
		OFFSET	-4.740440	-3.195970	-0.322709
		CHANNELS 3 Zrotation Xrotation Yrotation
		JOINT RightKnee
		{
			OFFSET	1.605680	-15.592300	1.005510
			CHANNELS 3 Zrotation Xrotation Yrotation
			JOINT RightAnkle
			{
				OFFSET	0.632401	-16.421000	-1.413730
				CHANNELS 3 Zrotation Xrotation Yrotation
				End Site
				{
					OFFSET	-0.008423	-2.933000	-1.684880
				}
			}
		}
	}
	JOINT Chest
	{
		OFFSET	0.000000	3.468200	0.078401
		CHANNELS 3 Zrotation Xrotation Yrotation
		JOINT LeftCollar
		{
			OFFSET	3.857650	15.070700	-0.011583
			CHANNELS 3 Zrotation Xrotation Yrotation
			JOINT LeftShoulder
			{
				OFFSET	3.979720	-1.940530	-0.165223
				CHANNELS 3 Zrotation Xrotation Yrotation
				JOINT LeftElbow
				{
					OFFSET	0.615844	-10.986600	-0.673886
					CHANNELS 3 Zrotation Xrotation Yrotation
					JOINT LeftWrist
					{
						OFFSET	0.826843	-10.854500	1.034220
						CHANNELS 3 Zrotation Xrotation Yrotation
						End Site
						{
							OFFSET	-1.679080	-8.456540	0.936217
						}
					}
				}
			}
		}
		JOINT RightCollar
		{
			OFFSET	-3.857650	15.070700	-0.011583
			CHANNELS 3 Zrotation Xrotation Yrotation
			JOINT RightShoulder
			{
				OFFSET	-3.979720	-1.940530	-0.165223
				CHANNELS 3 Zrotation Xrotation Yrotation
				JOINT RightElbow
				{
					OFFSET	-0.615845	-10.986600	-0.673886
					CHANNELS 3 Zrotation Xrotation Yrotation
					JOINT RightWrist
					{
						OFFSET	-0.826843	-10.854500	1.034220
						CHANNELS 3 Zrotation Xrotation Yrotation
						End Site
						{
							OFFSET	1.679080	-8.456540	0.936217
						}
					}
				}
			}
		}
		JOINT Neck
		{
			OFFSET	0.000000	15.101400	0.055730
			CHANNELS 3 Zrotation Xrotation Yrotation
			JOINT Head
			{
				OFFSET	0.000000	4.185120	1.488260
				CHANNELS 3 Zrotation Xrotation Yrotation
				End Site
				{
					OFFSET	0.000000	7.773420	-0.106016
				}
			}
		}
	}
}
MOTION
Frames:     16
Frame Time: 0.016667
-15.745695	37.545841	-27.937231	176.368347	170.616592	-3.258132	-7.938099	6.603083	-9.913410	-0.010389	4.833105	18.185158	4.199616	-4.341424	17.963610	-16.537296	0.578209	2.717425	0.497082	10.384216	75.226448	-0.170051	-11.698100	-55.681675	-7.014165	5.527820	0.031179	0.770938	0.282926	5.348433	4.335083	3.701102	-15.187136	-5.842661	-11.913843	0.355240	17.404734	3.935345	-19.715139	0.007118	1.581272	0.073282	-4.163144	2.659419	9.096442	4.492878	-12.141273	18.638582	-19.004902	3.764067	8.976348	-1.434762	8.386965	9.329818	4.099901	10.213125	0.810093	
-15.745695	37.545841	-27.937231	176.368347	170.616592	-3.258132	-7.938099	6.603083	-9.913410	-0.010389	4.833105	18.185158	4.199616	-4.341424	17.963610	-16.537296	0.578209	2.717425	0.497082	10.384216	75.226448	-0.170051	-11.698100	-55.681675	-7.019684	5.533515	0.032805	0.765314	0.287660	5.360159	4.346550	3.695207	-15.199645	-5.841549	-11.920282	0.355245	17.404734	3.935345	-19.715139	0.019656	1.584558	0.080725	-4.167804	2.659204	9.087233	4.489865	-12.148485	18.629816	-19.005886	3.765994	8.984988	-1.428483	8.381325	9.329781	4.103813	10.225988	0.810643	
-15.745695	37.545841	-27.937231	176.368347	170.616592	-3.258132	-7.938099	6.603083	-9.913410	-0.010389	4.833105	18.185158	4.199616	-4.341424	17.963610	-16.537296	0.578209	2.717425	0.497082	10.384216	75.226448	-0.170051	-11.698100	-55.681675	-7.036551	5.550911	0.037801	0.749552	0.301252	5.395021	4.380079	3.677049	-15.236850	-5.838372	-11.938763	0.355249	17.404734	3.935345	-19.715139	0.058154	1.594827	0.103682	-4.182132	2.658670	9.058879	4.480809	-12.172868	18.608694	-19.007664	3.760134	9.006430	-1.408818	8.382867	9.323949	4.106501	10.233743	0.817379	
-15.745695	37.545841	-27.937231	176.368347	170.616592	-3.258132	-7.938099	6.603083	-9.913410	-0.010389	4.833105	18.185158	4.199616	-4.341424	17.963610	-16.537296	0.578209	2.717425	0.497082	10.384216	75.226448	-0.170051	-11.698100	-55.681675	-7.042237	5.556783	0.039478	0.754195	0.296713	5.395670	4.381647	3.681606	-15.239093	-5.837320	-11.944860	0.355249	17.404734	3.935345	-19.715139	0.070749	1.597795	0.110973	-4.186624	2.658822	9.049822	4.477757	-12.180938	18.602928	-19.008148	3.758321	9.012321	-1.400468	8.398644	9.320446	4.103102	10.222466	0.822183	
-15.745695	37.545841	-27.937231	176.368347	170.616592	-3.258132	-7.938099	6.603083	-9.913410	-0.010389	4.833105	18.185158	4.199616	-4.341424	17.963610	-16.537296	0.578209	2.717425	0.497401	10.383825	75.235207	-0.171577	-11.697673	-55.690670	-7.059598	5.574680	0.044609	0.755271	0.306115	5.421039	4.398741	3.670156	-15.267448	-5.833999	-11.964168	0.355256	17.404734	3.935345	-19.715139	0.110847	1.609004	0.135223	-4.202021	2.656866	9.019937	4.468206	-12.204676	18.603172	-18.991381	3.758665	9.007921	-1.403464	8.412118	9.328557	4.131238	10.222928	0.820735	
-15.745695	37.545841	-27.937231	176.368347	170.616592	-3.258132	-7.938099	6.603083	-9.913410	-0.010389	4.833105	18.185158	4.199616	-4.341424	17.963610	-16.537296	0.578209	2.717425	0.497586	10.383616	75.239906	-0.172402	-11.697428	-55.695507	-7.071137	5.586568	0.048029	0.767909	0.307957	5.429876	4.397523	3.661945	-15.278046	-5.832937	-11.970330	0.355259	17.404734	3.935345	-19.715139	0.130791	1.607884	0.143184	-4.207971	2.655041	9.008883	4.465071	-12.212409	18.603498	-18.985245	3.758879	9.006033	-1.433262	8.448175	9.351946	4.170777	10.179063	0.806207	
-15.745695	37.545841	-27.937231	176.368347	170.616592	-3.258132	-7.938099	6.603083	-9.913410	-0.010389	4.833105	18.185158	4.199616	-4.341424	17.963610	-16.537296	0.578209	2.717425	0.497647	10.383593	75.240555	-0.172530	-11.697362	-55.696178	-7.082522	5.598285	0.051407	0.785981	0.336312	5.458445	4.390510	3.638516	-15.307687	-5.829831	-11.988341	0.355293	17.404734	3.935345	-19.715139	0.166963	1.627945	0.171140	-4.225428	2.650063	8.976190	4.455690	-12.235572	18.604570	-18.967262	3.759504	9.000456	-1.463116	8.492169	9.373720	4.216655	10.152128	0.797553	
-15.745695	37.545841	-27.937231	176.368347	170.616592	-3.258132	-7.938099	6.603083	-9.913410	-0.010389	4.833105	18.185158	4.199616	-4.341424	17.963610	-16.537296	0.578209	2.717425	0.497647	10.383593	75.240555	-0.172530	-11.697362	-55.696178	-7.088679	5.613180	0.064938	0.788769	0.349260	5.470256	4.393195	3.614361	-15.330650	-5.828822	-11.994177	0.355305	17.404734	3.935345	-19.715139	0.181620	1.623501	0.168209	-4.231162	2.648550	8.965409	4.452549	-12.243340	18.604931	-18.955044	3.759924	8.996675	-1.508911	8.541667	9.370127	4.261909	10.091428	0.802685	
-15.745695	37.545841	-27.937231	176.368347	170.616592	-3.258132	-7.938099	6.603083	-9.913410	-0.010389	4.833105	18.185158	4.199616	-4.341424	17.963610	-16.537296	0.578209	2.717425	0.497647	10.383593	75.240555	-0.172530	-11.697362	-55.696178	-7.095945	5.635824	0.087887	0.790377	0.331760	5.455039	4.400519	3.626021	-15.338842	-5.822920	-12.003288	0.356227	17.401791	3.926747	-19.712753	0.212426	1.630258	0.174032	-4.246584	2.644801	8.952474	4.439215	-12.266898	18.588207	-18.948187	3.760162	8.994542	-1.571391	8.578237	9.388794	4.341436	10.059401	0.782571	
-15.745695	37.545841	-27.937231	176.368347	170.616592	-3.258132	-7.938099	6.603083	-9.913410	-0.010389	4.833105	18.185158	4.199616	-4.341424	17.963610	-16.537296	0.578209	2.717425	0.497647	10.383593	75.240555	-0.172530	-11.697362	-55.696178	-7.099486	5.650512	0.104094	0.775073	0.334865	5.461411	4.419504	3.610853	-15.359902	-5.820396	-12.004768	0.356694	17.400248	3.922242	-19.711494	0.223577	1.624744	0.166985	-4.251408	2.643452	8.950039	4.434700	-12.274233	18.581297	-18.948187	3.760162	8.994542	-1.598555	8.578551	9.392704	4.379074	10.054311	0.770804	
-15.745695	37.545841	-27.937231	176.368347	170.616592	-3.258132	-7.938099	6.603083	-9.913410	-0.010389	4.833105	18.185158	4.199616	-4.341424	17.963610	-16.537296	0.578209	2.717425	0.497647	10.383593	75.240555	-0.172530	-11.697362	-55.696178	-7.102151	5.665242	0.121346	0.766611	0.330638	5.457767	4.432164	3.616511	-15.374073	-5.812521	-12.008839	0.370028	17.396061	3.905014	-19.719015	0.245076	1.633549	0.172456	-4.261204	2.648793	8.956610	4.416630	-12.302217	18.551117	-18.942175	3.759993	9.017808	-1.609611	8.629694	9.384483	4.387183	10.045279	0.762018	
-15.745695	37.545841	-27.937231	176.368347	170.616592	-3.258132	-7.938099	6.603083	-9.913410	-0.010389	4.833105	18.185158	4.199616	-4.341424	17.963610	-16.537296	0.578209	2.717425	0.497647	10.383593	75.240555	-0.172530	-11.697362	-55.696178	-7.104301	5.679771	0.138908	0.758086	0.326095	5.453118	4.443203	3.610595	-15.386318	-5.809740	-12.010086	0.377517	17.394720	3.898197	-19.724339	0.253461	1.626365	0.162220	-4.262999	2.654781	8.966616	4.407226	-12.315552	18.539009	-18.939241	3.761469	9.022600	-1.622862	8.649351	9.376975	4.397931	10.032841	0.751152	
-15.745695	37.545841	-27.937231	176.368347	170.616592	-3.258132	-7.938099	6.603083	-9.913410	-0.010389	4.833105	18.185158	4.199616	-4.341424	17.963610	-16.537296	0.578209	2.717425	0.497772	10.383410	75.244621	-0.173231	-11.697184	-55.700356	-7.106049	5.694539	0.157238	0.748616	0.321861	5.448340	4.456106	3.617617	-15.400679	-5.800926	-12.014231	0.401255	17.395605	3.885709	-19.727533	0.269575	1.629342	0.161046	-4.272439	2.651037	8.966137	4.397343	-12.328334	18.543947	-18.929558	3.767932	9.031316	-1.676217	8.735933	9.391867	4.433744	10.005748	0.746757	
-15.745695	37.545841	-27.937231	176.368347	170.616592	-3.258132	-7.938099	6.603083	-9.913410	-0.010389	4.833105	18.185158	4.199616	-4.341424	17.963610	-16.537296	0.578209	2.717425	0.497972	10.383182	75.249664	-0.174113	-11.696919	-55.705544	-7.107133	5.702064	0.166356	0.737168	0.326182	5.454076	4.468970	3.610040	-15.414942	-5.797846	-12.015263	0.409543	17.396021	3.882327	-19.732759	0.272213	1.631741	0.155640	-4.270090	2.653581	8.979382	4.388115	-12.340970	18.535038	-18.926413	3.770316	9.032971	-1.693624	8.764284	9.394092	4.438688	9.993880	0.763158	
-15.745695	37.545841	-27.937231	176.368347	170.616592	-3.258132	-7.938099	6.603083	-9.913410	-0.010389	4.833105	18.185158	4.199616	-4.341424	17.963610	-16.537296	0.578209	2.717425	0.498622	10.382450	75.265923	-0.176956	-11.696067	-55.722260	-7.110350	5.725581	0.195066	0.725293	0.316756	5.443673	4.485849	3.614653	-15.433677	-5.788107	-12.019697	0.434824	17.398212	3.874414	-19.750631	0.280195	1.651563	0.141461	-4.270065	2.623150	8.978617	4.378861	-12.352756	18.543947	-18.917673	3.777577	9.034875	-1.744278	8.834017	9.398942	4.473938	9.978502	0.795335	
-15.745695	37.545841	-27.937231	176.368347	170.616592	-3.258132	-7.938099	6.603083	-9.913410	-0.010389	4.833105	18.185158	4.199616	-4.341424	17.963610	-16.537296	0.578209	2.717425	0.498848	10.382190	75.271767	-0.177980	-11.695765	-55.728268	-7.112294	5.741076	0.214153	0.712193	0.315476	5.442664	4.501320	3.605537	-15.450904	-5.784637	-12.021647	0.443132	17.399063	3.872045	-19.756395	0.284724	1.658105	0.129836	-4.268771	2.612220	8.985739	4.370652	-12.363732	18.536514	-18.915005	3.779967	9.034733	-1.773305	8.873941	9.399363	4.495176	9.946206	0.802811	
